# xmcd CD database file
#
# Track frame offsets:
#	150
#	29128
#	43765
#	54599
#	65105
#	85497
#	95415
#	108604
#	128869
#	140110
#	165881
#	191673
#	208901
#
# Disc length: 3032 seconds
#
# Revision: 2
# Processed by: cddbd v1.5.2PL0 Copyright (c) Steve Scherf et al.
# Submitted via: CDex 1.70beta2
#
DISCID=cb0bd60d
DTITLE=Various Artist - Ultimate Jazz Christmas
DYEAR=2006
DGENRE=Jazz
TTITLE0=Duke Pearson - Sleigh Ride
TTITLE1=Nat King Cole - The Christmas Song
TTITLE2=Count Basie - Basie's Jingle Bells
TTITLE3=Nancy Wilson - That's What I Want for Christmas
TTITLE4=Eliane Elias - I've Got My Love to Keep Me Warm
TTITLE5=Dianne Reeves - Jingle Bells
TTITLE6=Charles Brown - Merry Christmas Baby
TTITLE7=Booker Ervin - White Christmas
TTITLE8=Lou Rawls - Have Yourself a Merry Little Christmas
TTITLE9=Duke Pearson - Little Drummer Boy
TTITLE10=Donald Byrd - Christo Redentor
TTITLE11=Nora Jones - Peace
TTITLE12=Thad Jones and Mel Lewis - A Child is Born
EXTD=YEAR: 2006
EXTT0=
EXTT1=
EXTT2=
EXTT3=
EXTT4=
EXTT5=
EXTT6=
EXTT7=
EXTT8=
EXTT9=
EXTT10=
EXTT11=
EXTT12=
PLAYORDER=
